Coordinates
version=1
nRows=26
nColumns=24
inDegrees=yes

Units are S.I. units (second, meters, Newtons, ...)
Angles are in degrees.

endheader
time	pelvis_tilt	pelvis_list	pelvis_rotation	pelvis_tx	pelvis_ty	pelvis_tz	hip_flexion_r	hip_adduction_r	hip_rotation_r	knee_angle_r	ankle_angle_r	subtalar_angle_r	mtp_angle_r	hip_flexion_l	hip_adduction_l	hip_rotation_l	knee_angle_l	ankle_angle_l	subtalar_angle_l	mtp_angle_l	lumbar_extension	lumbar_bending	lumbar_rotation
      1.37883333	      1.48680548	      5.92473857	     -2.05190507	      0.28612978	      1.02297414	      0.23505815	     11.93915576	     -6.20429216	     -1.76574654	    -65.19206633	      3.67618919	    -19.61383487	     -2.53524121	      5.42787985	      9.67640943	      1.21662374	     -8.14806297	      0.58138233	    -14.39765913	      2.09201709	     -3.68483414	     -8.01756689	      4.23523102
      1.38300000	      1.46011563	      5.80790410	     -1.94586215	      0.29093274	      1.02365076	      0.23487071	     12.43306159	     -6.02387505	     -1.78406909	    -64.75500565	      3.90183496	    -19.42576179	     -2.53844889	      4.97890358	      9.57427444	      1.36169404	     -7.83273113	      0.64509511	    -14.37388259	      2.03341131	     -3.70861059	     -7.90067049	      4.01306763
      1.38716667	      1.41648054	      5.68041077	     -1.83681774	      0.29571990	      1.02427459	      0.23471306	     12.93064131	     -5.82412461	     -1.79567662	    -64.26021965	      4.11068693	    -19.24139684	     -2.53279387	      4.55611717	      9.45413719	      1.48773555	     -7.52995206	      0.69792828	    -14.32535442	      1.99429184	     -3.71239173	     -7.77966033	      3.83889801
      1.39133333	      1.40808383	      5.58537782	     -1.72456967	      0.30050497	      1.02488943	      0.23451656	     13.38514146	     -5.68421625	     -1.83362463	    -63.73583331	      4.33425280	    -18.99117775	     -2.51737976	      4.08333688	      9.37461459	      1.64974411	     -7.19894091	      0.76802957	    -14.32475179	      1.93020092	     -3.75011159	     -7.67667362	      3.54318882
      1.39550000	      1.37270305	      5.47290849	     -1.60780144	      0.30528070	      1.02543631	      0.23434225	     13.85255890	     -5.51604169	     -1.86183569	    -63.15528477	      4.53128541	    -18.77302125	     -2.49192933	      3.64891210	      9.27023314	      1.80225299	     -6.88468068	      0.82063580	    -14.31299768	      1.85474164	     -3.76170635	     -7.56728882	      3.28501503
      1.39966667	      1.36844731	      5.36138987	     -1.49234057	      0.31004544	      1.02600223	      0.23416939	     14.27215246	     -5.35631910	     -1.89899471	    -62.52303967	      4.71001823	    -18.54577239	     -2.46067262	      3.18212819	      9.16521534	      1.94580873	     -6.57063894	      0.89166484	    -14.27983497	      1.78904976	     -3.80964141	     -7.45258964	      3.05747302
      1.40383333	      1.34400900	      5.25928909	     -1.37500098	      0.31480109	      1.02648679	      0.23400491	     14.70557302	     -5.20860841	     -1.93397338	    -61.85442987	      4.88628609	    -18.31222984	     -2.42110296	      2.74216845	      9.06730607	      2.08900804	     -6.26257089	      0.95530247	    -14.25333534	      1.72152137	     -3.83287856	     -7.34972509	      2.81237351
      1.40800000	      1.30528249	      5.16314197	     -1.25375128	      0.31954012	      1.02689536	      0.23383127	     15.14668868	     -5.07333961	     -1.97444036	    -61.15165672	      5.05366550	    -18.08397270	     -2.37596129	      2.32466548	      8.97446231	      2.23130115	     -5.96477433	      1.02844710	    -14.22970129	      1.65607092	     -3.83990951	     -7.25222075	      2.56787096
      1.41216667	      1.26299055	      5.05644243	     -1.13988951	      0.32427724	      1.02727950	      0.23369486	     15.57488647	     -4.91943476	     -2.00169445	    -60.39368024	      5.19668818	    -17.89304904	     -2.34936134	      1.91980486	      8.86373034	      2.33475499	     -5.68054251	      1.08419575	    -14.16440025	      1.62512635	     -3.84250274	     -7.14348809	      2.41965390
      1.41633333	      1.27491090	      4.97403212	     -1.01456157	      0.32898715	      1.02768540	      0.23352329	     15.93459533	     -4.81227674	     -2.05710777	    -59.60696468	      5.34724977	    -17.66374251	     -2.29079880	      1.44471954	      8.78370869	      2.50915965	     -5.37108275	      1.17321298	    -14.15701349	      1.55767580	     -3.92073817	     -7.06351677	      2.07280664
      1.42050000	      1.24681141	      4.88665602	     -0.89025273	      0.33371303	      1.02799444	      0.23336083	     16.32355033	     -4.69823857	     -2.10810683	    -58.77638952	      5.47070338	    -17.47256107	     -2.23148729	      1.02565899	      8.69372937	      2.64752352	     -5.08650447	      1.25624982	    -14.13653177	      1.49411652	     -3.93310547	     -6.97371832	      1.82571083
      1.42466667	      1.21886428	      4.81119242	     -0.77197494	      0.33840389	      1.02825240	      0.23322495	     16.70781302	     -4.59456315	     -2.14516640	    -57.91876475	      5.59401887	    -17.29470499	     -2.16136213	      0.60969832	      8.61323532	      2.79052765	     -4.80054453	      1.32605304	    -14.10478597	      1.42258504	     -3.96547178	     -6.90269432	      1.56571707
      1.42883333	      1.20678872	      4.72361509	     -0.64846117	      0.34311989	      1.02851584	      0.23307563	     17.04963518	     -4.48660490	     -2.20061561	    -57.00255494	      5.68208445	    -17.14485477	     -2.10295917	      0.18239300	      8.51788468	      2.91208815	     -4.53002168	      1.42526522	    -14.06234702	      1.36692152	     -3.99528395	     -6.80849215	      1.34566126
      1.43300000	      1.15750817	      4.64895328	     -0.53535976	      0.34780833	      1.02866561	      0.23296094	     17.43067832	     -4.38558526	     -2.23122674	    -56.06770154	      5.77925665	    -16.99567415	     -2.06686404	     -0.19239225	      8.43294221	      3.01340445	     -4.27663781	      1.49820384	    -14.00028848	      1.33600553	     -3.99421014	     -6.73599874	      1.18398121
      1.43716667	      1.12403223	      4.57786676	     -0.41637465	      0.35250311	      1.02879744	      0.23283286	     17.77762153	     -4.29759078	     -2.27490573	    -55.09383454	      5.85452415	    -16.86615821	     -2.03100104	     -0.58508398	      8.35077150	      3.13146587	     -4.02400420	      1.59995376	    -13.94651072	      1.30672308	     -4.00906612	     -6.66238490	      0.97439888
      1.44133333	      1.12881323	      4.52313573	     -0.29686521	      0.35717952	      1.02894500	      0.23270545	     18.07181386	     -4.23445431	     -2.32627172	    -54.08964815	      5.89695745	    -16.77959653	     -1.95734591	     -1.02708520	      8.28609342	      3.28537914	     -3.75208923	      1.71461612	    -13.92713507	      1.24413310	     -4.07633673	     -6.61386028	      0.60586061
      1.44550000	      1.08354801	      4.46248595	     -0.18742252	      0.36187354	      1.02898550	      0.23259457	     18.40676174	     -4.16170647	     -2.36121825	    -53.04923394	      5.95075999	    -16.66879671	     -1.92224557	     -1.39501635	      8.21175997	      3.37628691	     -3.51925217	      1.80456476	    -13.86686900	      1.21664035	     -4.07174549	     -6.55084518	      0.46819053
      1.44966667	      1.04298551	      4.41025665	     -0.07688085	      0.36656874	      1.02898455	      0.23248762	     18.72352571	     -4.10116272	     -2.39936111	    -51.97925582	      5.97458847	    -16.59158107	     -1.88557719	     -1.76851010	      8.14580548	      3.48396239	     -3.28695718	      1.91770231	    -13.81217063	      1.18815305	     -4.07644303	     -6.49536585	      0.26614026
      1.45383333	      1.04929374	      4.37419972	      0.02930965	      0.37125057	      1.02900190	      0.23238704	     18.97982976	     -4.06453466	     -2.44219919	    -50.88552031	      5.96287701	    -16.56708606	     -1.81772110	     -2.20040276	      8.09626228	      3.61044882	     -3.03754209	      2.05122042	    -13.77739158	      1.13455504	     -4.14141526	     -6.46710135	     -0.06381182
      1.45800000	      0.97998190	      4.32313936	      0.12976512	      0.37597042	      1.02890146	      0.23229609	     19.29715609	     -4.00755809	     -2.46971495	    -49.74669974	      5.96763769	    -16.48809892	     -1.78613273	     -2.53207536	      8.02885547	      3.69490589	     -2.82799482	      2.15413197	    -13.71612459	      1.11105136	     -4.10526228	     -6.40988485	     -0.18934866
      1.46216667	      0.94349904	      4.29241948	      0.22886899	      0.38067904	      1.02878937	      0.23220135	     19.57065311	     -3.98019622	     -2.50563734	    -48.58983078	      5.93479586	    -16.45148527	     -1.75071113	     -2.90011067	      7.98291950	      3.79022675	     -2.61639785	      2.28103045	    -13.66093576	      1.08432295	     -4.11321440	     -6.37572646	     -0.38333398
      1.46633333	      0.91546447	      4.25478349	      0.32301472	      0.38540053	      1.02866811	      0.23211447	     19.81455556	     -3.94530102	     -2.53962335	    -47.39198838	      5.88319830	    -16.42864390	     -1.71643075	     -3.27738768	      7.92878619	      3.88565712	     -2.40590685	      2.41332740	    -13.60221831	      1.05861401	     -4.12437968	     -6.33574707	     -0.58046921
      1.47050000	      0.87016553	      4.22781649	      0.41214602	      0.39013083	      1.02847536	      0.23204058	     20.06711950	     -3.92310366	     -2.57083546	    -46.17330427	      5.81213058	    -16.41795899	     -1.68147081	     -3.63127712	      7.88515420	      3.97738996	     -2.20594903	      2.54958476	    -13.55092274	      1.03247228	     -4.11796974	     -6.30463511	     -0.77840419
      1.47466667	      0.85322717	      4.21563908	      0.49762548	      0.39486277	      1.02828510	      0.23198782	     20.27619647	     -3.91761313	     -2.60152611	    -44.93207300	      5.70378921	    -16.47179470	     -1.61468221	     -4.01913444	      7.85481985	      4.08249105	     -2.00148256	      2.70133153	    -13.50819869	      0.98262800	     -4.15481921	     -6.30428280	     -1.06778083
      1.47883333	      0.78232381	      4.19971480	      0.57394353	      0.39962503	      1.02798129	      0.23191945	     20.53237993	     -3.91427279	     -2.63703829	    -43.66959755	      5.63618711	    -16.39385383	     -1.58582505	     -4.33868913	      7.82296758	      4.15357715	     -1.81728536	      2.82995381	    -13.45697131	      0.96215291	     -4.11611843	     -6.28500969	     -1.16906808
      1.48300000	      0.74630076	      4.17555425	      0.65481898	      0.40439702	      1.02772277	      0.23185243	     20.72055656	     -3.90201360	     -2.67784314	    -42.35126049	      5.50797373	    -16.39043967	     -1.55351887	     -4.69285324	      7.78035047	      4.24377971	     -1.64420424	      2.97868403	    -13.40713064	      0.93801478	     -4.10689150	     -6.24573059	     -1.32745529
